<svg width="22" height="21" viewBox="0 0 22 21" fill="none" xmlns="http://www.w3.org/2000/svg">
<path d="M19.6665 7.35342V0.25H17.4998V2.41667H4.49984V0.25H2.33317V7.35342C1.044 8.10417 0.166504 9.48542 0.166504 11.0833V15.4167C0.166504 15.704 0.28064 15.9795 0.483805 16.1827C0.686969 16.3859 0.96252 16.5 1.24984 16.5H2.33317V20.8333H4.49984V16.5H17.4998V20.8333H19.6665V16.5H20.7498C21.0372 16.5 21.3127 16.3859 21.5159 16.1827C21.719 15.9795 21.8332 15.704 21.8332 15.4167V11.0833C21.8332 9.48542 20.9546 8.10417 19.6665 7.35342ZM17.4998 4.58333V6.75H12.0832V4.58333H17.4998ZM4.49984 4.58333H9.91651V6.75H4.49984V4.58333ZM19.6665 14.3333H2.33317V11.0833C2.33317 9.88842 3.30492 8.91667 4.49984 8.91667H17.4998C18.6948 8.91667 19.6665 9.88842 19.6665 11.0833V14.3333Z" fill="black"/>
</svg>
