<svg width="60" height="60" viewBox="0 0 60 60" fill="none" xmlns="http://www.w3.org/2000/svg">
<path d="M30 0C13.431 0 0 13.431 0 30C0 46.569 13.431 60 30 60C46.569 60 60 46.569 60 30C60 13.431 46.569 0 30 0ZM46.398 31.203C41.364 36.252 36.324 41.298 31.269 46.326C30.951 46.644 30.492 46.818 30.033 47.097C29.574 46.833 29.103 46.677 28.785 46.362C23.703 41.319 18.636 36.258 13.581 31.188C12.741 30.345 12.741 29.532 13.575 28.695C18.627 23.622 23.691 18.558 28.761 13.503C29.58 12.684 30.432 12.696 31.263 13.521C36.315 18.552 41.361 23.592 46.398 28.638C47.268 29.514 47.265 30.333 46.398 31.203Z" fill="#2E3641"/>
<path d="M31.9138 27.3636C29.6278 27.3636 27.4558 27.3486 25.2808 27.3696C23.4778 27.3876 21.9388 28.2486 21.7228 29.7366C21.4228 31.7916 21.4798 33.9006 21.3838 36.0036C22.6888 36.0036 23.7478 36.0036 24.9478 36.0036C24.9478 34.2576 24.9478 32.5686 24.9478 30.8556C27.3268 30.8556 29.5618 30.8556 31.9618 30.8556C31.9618 32.5896 31.9618 34.2126 31.9618 35.7846C34.2268 33.5286 36.4678 31.2966 38.6188 29.1546C36.4378 26.9676 34.2058 24.7296 31.9168 22.4316C31.9138 24.0486 31.9138 25.6686 31.9138 27.3636Z" fill="#2E3641"/>
</svg>
