<svg width="200" height="200" viewBox="0 0 200 200" fill="none" xmlns="http://www.w3.org/2000/svg">
<path d="M100 0C155.23 0 200 44.77 200 100C200 155.23 155.23 200 100 200C44.77 200 0 155.23 0 100C0 44.77 44.77 0 100 0ZM176.17 103.13C177.96 101.06 177.74 97.91 175.67 96.12C174.94 95.49 103.18 33.28 102.78 32.93C101.36 31.99 99.57 31.81 97.99 32.52V32.26L69.38 57.07V42.45C69.38 38.45 66.13 35.19 62.12 35.19C58.12 35.19 54.87 38.45 54.87 42.45V69.65L24.34 96.12C22.27 97.91 22.04 101.06 23.84 103.13C24.78 104.21 26.15 104.84 27.61 104.84C28.81 104.84 29.96 104.41 30.86 103.63L100.01 43.68L169.15 103.63C170.04 104.41 171.2 104.84 172.4 104.84C173.85 104.84 175.23 104.21 176.17 103.13ZM150.96 162.95V105.16C150.96 103.86 150.43 102.58 149.5 101.65C148.56 100.71 147.31 100.19 145.98 100.19C143.24 100.19 141.01 102.42 141.01 105.16V157.96H59.29V105.16C59.29 103.82 58.77 102.57 57.83 101.66C56.9 100.71 55.66 100.19 54.32 100.19C51.57 100.19 49.34 102.42 49.34 105.16V162.95C49.34 164.27 49.86 165.52 50.8 166.46C51.74 167.39 52.98 167.91 54.31 167.91H145.98C147.31 167.91 148.56 167.39 149.5 166.46C150.44 165.53 150.96 164.28 150.96 162.95ZM125.73 110.41C128.81 105.38 128.83 100.27 126.55 95.01C123.21 87.3 115.42 83.39 107.64 85.49C104.63 86.31 102.17 88.02 100.04 90.46C99.77 90.2 99.61 90.06 99.46 89.91C92.68 82.82 82.11 83.22 76.05 90.92C72.74 95.14 71.02 99.92 72.24 105.37C73.18 109.56 75.76 112.87 78.46 116.04C84.07 122.62 90.76 127.99 97.73 133.04C99.56 134.36 100.52 134.42 102.28 133.03C106.43 129.75 110.65 126.55 114.63 123.08C118.89 119.37 122.74 115.28 125.73 110.41Z" fill="white"/>
</svg>
