<svg width="60" height="60" viewBox="0 0 60 60" fill="none" xmlns="http://www.w3.org/2000/svg">
<path d="M30.005 5.6236e-05C13.4546 0.0318637 0.02123 13.4652 2.50109e-05 30.0263C-0.0211799 46.5556 13.444 59.9995 30.0156 59.9889C46.6085 59.9889 59.9888 46.598 59.9782 30.0051C59.9782 13.4334 46.5343 -0.0317512 30.005 5.6236e-05ZM36.2817 29.8885C34.9458 29.8885 33.7477 29.8885 32.2846 29.8885C32.2846 32.38 32.2846 34.7338 32.2846 37.0875C32.2846 39.4625 32.2846 41.8374 32.2846 44.3396C30.3019 44.3396 28.4359 44.3396 26.326 44.3396C26.326 42.0071 26.326 39.6427 26.326 37.289C26.326 34.9246 26.326 32.5497 26.326 30.1323C25.2763 30.0687 24.4069 30.0051 23.4421 29.9415C23.4421 28.3193 23.4421 26.8031 23.4421 25.1067C24.2903 25.0643 25.1703 25.0219 26.326 24.9583C26.326 23.792 26.3154 22.6045 26.326 21.4171C26.3578 17.6744 28.0118 15.8402 31.7438 15.5857C33.3236 15.4797 34.9034 15.5645 36.621 15.5645C36.621 17.2291 36.621 18.8301 36.621 20.6643C35.741 20.6643 34.861 20.6961 33.981 20.6537C32.7935 20.6113 32.1997 21.0884 32.2634 22.3289C32.3164 23.1559 32.274 23.9935 32.274 25.0325C33.8219 25.0325 35.2215 25.0325 36.7058 25.0325C36.5574 26.7395 36.4195 28.2451 36.2817 29.8885Z" fill="white"/>
</svg>
