<svg width="183" height="149" viewBox="0 0 183 149" fill="none" xmlns="http://www.w3.org/2000/svg">
<path d="M127.248 26.9516C120.884 29.5625 116.804 42.6174 113.377 63.9946C141.608 54.3667 137.202 23.6879 135.244 15.0391C134.265 20.5874 130.349 25.6461 127.248 26.9516Z" fill="#F270AB"/>
<path d="M119.905 79.9855C116.804 78.3537 114.193 75.09 112.235 71.6631C111.745 74.6004 111.419 77.5378 110.93 80.8015C106.687 111.97 99.1802 93.3667 84.3304 93.5299C69.4805 93.6931 75.0288 119.476 68.991 135.632C67.8487 138.732 66.0536 141.18 63.769 143.138C72.0915 143.138 92.1633 143.301 109.135 143.138C109.624 142.485 119.252 127.309 117.457 110.991C117.457 110.991 122.189 135.305 117.62 142.812L109.787 143.138C123.821 143.138 135.734 142.812 137.202 142.485C141.282 141.343 137.202 142.485 141.445 120.945C141.772 119.476 141.935 117.845 141.935 116.376L141.119 106.585C137.855 92.5508 126.106 83.0861 119.905 79.9855Z" fill="#5847BA"/>
<path d="M68.828 135.468C75.029 119.313 69.3175 93.6931 84.1674 93.3667C99.0172 93.2035 106.524 111.807 110.767 80.6383C111.256 77.5377 111.583 74.4372 112.072 71.4999C112.398 68.8889 112.888 66.4411 113.214 63.9934C116.804 42.6161 120.721 29.5613 127.248 26.9503C130.349 25.6448 134.428 20.5861 135.244 15.0378C136.55 6.55216 130.675 -2.58621 102.934 0.677493C102.934 0.677493 87.4311 0.677493 79.9246 10.4686C72.418 20.2597 88.4102 30.5404 64.5852 41.9633C40.7601 53.3863 15.6296 40.9842 13.0186 67.4203C10.4077 93.8563 35.7014 108.869 21.9938 113.602C8.28626 118.334 -15.0492 136.121 13.6714 143.138C36.6805 148.85 54.4677 150.971 63.606 142.975C65.8906 141.017 67.5225 138.569 68.828 135.468Z" fill="#312B6D"/>
<path d="M180.447 84.555L169.677 79.1698C167.881 78.1907 165.597 79.0067 164.618 80.8017L157.274 95.6515C158.09 95.6515 158.906 95.6515 159.559 95.4884L160.865 92.8774L173.103 98.9152L171.798 101.689L162.007 96.7938C161.68 97.4466 161.191 98.0993 160.865 98.2625C159.722 98.9152 154.5 102.342 153.684 101.2C153.032 100.058 151.237 104.627 155.153 105.279L156.459 104.627H156.622C157.111 104.627 157.601 107.401 158.09 107.401C160.375 107.238 166.576 111.97 170.003 111.154C174.898 110.012 176.857 100.221 178.325 97.2834L182.242 89.2873C183.058 87.6555 182.405 85.3709 180.447 84.555ZM168.534 93.3669L162.333 90.2664L163.639 87.4923L169.84 90.5928L168.534 93.3669ZM179.304 90.756L165.434 83.9022L166.739 81.1281L180.61 87.9818L179.304 90.756Z" fill="white"/>
<path d="M165.597 83.8025L166.984 81.0283L180.871 87.9311L179.484 90.7052L165.597 83.8025Z" fill="#A09F9F"/>
<path d="M162.007 96.9565L171.798 101.852L173.103 99.0779L160.865 93.04L159.559 95.651C160.701 95.4878 160.375 95.4878 160.865 94.9983C162.007 93.6928 162.66 95.4878 162.007 96.9565Z" fill="#A09F9F"/>
<path d="M162.301 90.2829L163.688 87.5088L169.97 90.6256L168.583 93.3998L162.301 90.2829Z" fill="#55CBFF"/>
<path d="M171.145 108.87C170.329 110.012 169.023 110.338 167.718 109.849C163.638 108.054 154.663 104.137 154.337 103.811C152.705 102.505 153.031 100.384 153.684 101.2C154.663 102.342 161.68 99.4048 162.333 96.7939C162.659 95.162 162.006 93.2038 161.027 94.3461C160.538 94.8356 160.864 95.162 159.232 95.3252C158.579 95.4884 158.09 95.6516 157.437 95.6516C156.132 95.6516 154.989 95.4884 154.01 95.4884C153.358 95.4884 152.705 95.6516 152.052 96.1411L141.119 105.769V106.422L141.935 116.213V116.376C144.056 113.439 154.663 111.644 154.663 111.644C168.697 120.129 174.572 110.012 176.856 102.995C177.835 99.8944 178.162 97.4466 178.162 97.4466C176.53 100.873 173.103 106.095 171.145 108.87Z" fill="#F270AB"/>
<path d="M117.457 110.829C119.252 127.148 109.461 142.324 109.135 142.977H109.951L117.784 142.65C122.19 135.144 117.457 110.829 117.457 110.829Z" fill="#2A2277"/>
</svg>
