<svg id="Layer_1" data-name="Layer 1" xmlns="http://www.w3.org/2000/svg" viewBox="0 0 345.57 345.57"><defs><style>.cls-1{fill:#fff;}</style></defs><title>incognito-icon</title><path class="cls-1" d="M345.57,172.82c-.12,95.48-77.87,173-173.25,172.75S-.17,267.73,0,172.32C.17,77.2,77.63,0,172.81,0,268.16,0,345.69,77.6,345.57,172.82Zm-220-95.42c-12.33.06-23.71,9.14-27.36,23q-7.61,28.89-15,57.85c-.63,2.47-1.61,3.72-4.34,3.93-5,.37-9.9,1.15-14.84,1.75-4.45.55-6.72,2.94-6.36,6.68s3.31,5.75,7.64,5.18c22.13-2.92,44.34-5.05,66.64-6.23a784.1,784.1,0,0,1,82.28,0c22.17,1.17,44.25,3.37,66.26,6.25,4.16.54,7.25-1.79,7.56-5.39.29-3.39-2.2-6-6.29-6.47-4.46-.55-8.9-1.21-13.37-1.56-3.22-.25-4.83-1.35-5.69-4.83-4.74-19.09-9.79-38.11-14.82-57.13C243.17,82.82,227.09,73.77,209.66,79c-11.09,3.31-22.15,6.76-33.18,10.26a10.07,10.07,0,0,1-6.53.09q-11.72-3.79-23.55-7.26C140,80.17,133.71,77.47,125.54,77.4ZM274.31,232.63c-.21-2.23-.24-4.49-.64-6.69-3.46-18.94-18.42-32-38-33.17-17.74-1.09-34.46,11-39.76,29-.79,2.66-1.88,3.21-4.41,2.77a105.23,105.23,0,0,0-36.83.22c-2.76.49-3.71.15-4.52-2.78a39.92,39.92,0,1,0-37.24,50.64c18.39-.41,33.86-13.31,37.89-31.83.52-2.4,1.26-3.61,3.79-4.05a113.06,113.06,0,0,1,35.74-.49c3.37.49,4.34,1.95,5,5,4.32,20.12,22.86,33.34,43.47,31.21C258.8,270.41,274.26,253,274.31,232.63Z"/></svg>