<svg width="60" height="60" viewBox="0 0 60 60" fill="none" xmlns="http://www.w3.org/2000/svg">
<path d="M29.9415 0C13.4864 0 -0.0317514 13.5924 5.60162e-05 30.111C0.0318635 46.5873 13.4652 59.9888 29.9415 59.9994C46.5768 60.01 59.9677 46.6827 59.9889 30.1004C60.0101 13.4333 46.598 0 29.9415 0ZM42.9613 36.3559C42.6856 40.3106 40.4273 42.6432 36.4832 42.9188C32.0196 43.2263 27.5029 43.1733 23.0392 42.8234C19.5192 42.5584 17.1973 39.8229 17.0807 36.2923C16.9322 32.1255 16.9216 27.9375 17.0807 23.7708C17.2185 19.9433 19.9645 17.282 23.792 17.0594C25.9019 16.9322 28.0224 17.0382 30.1323 17.0382C30.1323 17.0276 30.1323 17.017 30.1323 16.9958C31.9771 16.9958 33.8326 16.911 35.6774 17.017C40.0032 17.2396 42.622 19.4131 42.9507 23.6753C43.2794 27.8845 43.2582 32.1467 42.9613 36.3559Z" fill="white"/>
<path d="M36.2927 19.5831C32.1365 19.3498 27.9379 19.3604 23.7817 19.5831C21.0887 19.7315 19.6998 21.1417 19.5513 23.8665C19.3393 27.9803 19.3287 32.1152 19.5619 36.229C19.7316 39.0917 21.5234 40.4806 24.4497 40.5972C26.2945 40.6608 28.1499 40.6078 30.0054 40.6078C31.3943 40.6078 32.7832 40.6396 34.1722 40.629C34.6387 40.629 35.0946 40.6184 35.5611 40.5972C38.7206 40.4806 40.5018 38.7736 40.5761 35.6353C40.6715 31.882 40.6609 28.1181 40.5761 24.3648C40.5124 21.534 39.0917 19.7421 36.2927 19.5831ZM29.8781 36.7485C26.1461 36.6531 23.2728 33.589 23.3682 29.8039C23.453 26.1142 26.4217 23.3046 30.175 23.3682C33.8329 23.4318 36.8016 26.4747 36.7486 30.1008C36.6849 33.7904 33.536 36.8439 29.8781 36.7485ZM36.9394 24.7783C36.0594 24.7783 35.349 24.0679 35.349 23.1879C35.349 22.3079 36.0594 21.5976 36.9394 21.5976C37.8194 21.5976 38.5298 22.3079 38.5298 23.1879C38.5298 24.0573 37.8194 24.7783 36.9394 24.7783Z" fill="white"/>
<path d="M30.037 25.7207C27.7574 25.7207 25.8066 27.6291 25.7218 29.9193C25.6475 32.2518 27.6196 34.2557 29.9946 34.2663C32.3589 34.2769 34.2249 32.4639 34.2568 30.1207C34.2992 27.7246 32.3801 25.7313 30.037 25.7207Z" fill="white"/>
</svg>
