<svg width="17" height="17" viewBox="0 0 17 17" fill="none" xmlns="http://www.w3.org/2000/svg">
<path d="M15.5653 1.47973C16.02 1.94601 16.3808 2.5004 16.627 3.11101C16.8732 3.72162 17 4.37641 17 5.03772C17 5.69903 16.8732 6.35382 16.627 6.96443C16.3808 7.57504 16.02 8.12943 15.5653 8.5957C14.0917 10.1155 11.9057 10.4477 10.1101 9.61227L8.28522 12.9438L5.36734 13.2558L3.90352 17H0.97588L0 14.987L7.75825 7.24699C6.86044 5.36483 7.1532 3.03981 8.66581 1.47973C9.11791 1.01078 9.65543 0.638627 10.2475 0.38468C10.8395 0.130733 11.4744 0 12.1156 0C12.7567 0 13.3916 0.130733 13.9836 0.38468C14.5757 0.638627 15.1132 1.01078 15.5653 1.47973ZM13.1158 5.29438C13.838 5.29438 14.4137 4.69048 14.4137 3.94566C14.4137 3.59063 14.277 3.25014 14.0336 2.9991C13.7902 2.74805 13.4601 2.60702 13.1158 2.60702C12.7716 2.60702 12.4415 2.74805 12.1981 2.9991C11.9547 3.25014 11.8179 3.59063 11.8179 3.94566C11.8179 4.69048 12.4034 5.29438 13.1158 5.29438Z" fill="black"/>
</svg>
