<svg width="200" height="200" viewBox="0 0 200 200" fill="none" xmlns="http://www.w3.org/2000/svg">
<path d="M100 0C44.77 0 0 44.77 0 100C0 155.23 44.77 200 100 200C155.23 200 200 155.23 200 100C200 44.77 155.23 0 100 0ZM91.3 167.88C85.16 167.88 79.01 167.84 72.87 167.91C71.1 167.93 70.41 167.08 70.73 165.58C72.12 158.95 68.56 154.78 63.97 150.75C59.52 146.85 55.47 142.48 51.35 138.23C50.53 137.38 49.69 136.11 49.67 135.02C49.53 127.23 49.57 119.44 49.63 111.65C49.65 109.07 50.9 106.98 53.31 106.05C55.61 105.16 58.23 105.17 59.86 107.29C60.91 108.66 61.59 110.63 61.67 112.37C61.91 117.29 61.61 122.23 61.84 127.15C61.92 128.73 62.7 130.51 63.71 131.75C65.57 134.03 67.78 136.06 69.99 138.03C70.54 138.53 71.64 138.43 72.48 138.6C72.28 137.82 72.31 136.86 71.85 136.31C70.32 134.51 68.55 132.91 66.98 131.13C64.57 128.4 64.49 125.73 66.62 123.48C68.75 121.23 72.17 120.84 74.62 123.13C80.98 129.06 87.15 135.18 93.31 141.32C93.89 141.9 94.03 143.1 94.05 144.02C94.13 147.47 94.08 150.92 94.08 154.38C94.08 157.93 94 161.48 94.11 165.03C94.19 167.11 93.2 167.88 91.3 167.88ZM96.11 114.73C84.15 106.08 72.68 96.86 63.06 85.58C58.42 80.14 53.99 74.47 52.38 67.28C50.29 57.94 53.24 49.73 58.93 42.5C69.32 29.29 87.45 28.61 99.08 40.76C99.33 41.02 99.61 41.27 100.08 41.71C103.72 37.53 107.95 34.59 113.11 33.19C126.46 29.58 139.81 36.29 145.54 49.51C149.45 58.53 149.42 67.29 144.13 75.92C139 84.27 132.4 91.3 125.1 97.66C118.27 103.61 111.04 109.11 103.92 114.73C100.89 117.1 99.24 116.99 96.11 114.73ZM142.58 144.3C138.66 147.42 135.47 151.43 131.75 154.83C129.84 156.58 128.83 158.39 129.15 160.99C129.32 162.35 129.12 163.75 129.19 165.13C129.29 167.05 128.25 167.86 126.5 167.87C120.26 167.9 114.01 167.95 107.77 167.79C107.03 167.77 105.72 166.5 105.7 165.78C105.54 158.19 105.53 150.59 105.66 142.99C105.68 142 106.59 140.85 107.38 140.07C112.91 134.56 118.51 129.12 124.11 123.67C127.03 120.83 130.37 120.57 132.81 122.94C135.28 125.34 135.07 128.57 132.23 131.52C130.73 133.09 129.13 134.58 127.74 136.25C127.32 136.75 127.48 137.72 127.38 138.47C128.14 138.31 129.12 138.39 129.61 137.94C132.15 135.59 134.65 133.19 136.97 130.62C137.66 129.85 138 128.52 138.02 127.44C138.12 122.21 138.03 116.98 138.06 111.75C138.09 107.86 140.68 105.12 144.15 105.2C147.48 105.28 149.99 108 150.03 111.69C150.07 115.54 150.04 119.39 150.04 123.23C150.04 124.22 149.89 125.23 150.06 126.19C151.47 133.86 148.58 139.54 142.58 144.3Z" fill="white"/>
<path d="M135.32 48.6202C126.96 37.5802 111.9 37.9202 105.07 49.2502C101.33 55.4602 98.6697 55.4102 94.8797 49.1202C91.4997 43.5202 86.4497 40.7302 79.9497 40.4502C68.8997 40.4302 58.4397 52.8002 60.1897 63.7402C61.0097 68.8602 63.7697 73.0002 66.8297 76.9302C75.8697 88.5302 87.2197 97.6602 98.8797 106.43C99.9297 107.22 100.59 106.83 101.4 106.18C107.46 101.27 113.7 96.5702 119.54 91.4002C126.16 85.5402 132.18 79.1102 136.98 71.5302C142.2 63.2902 139.5 54.1402 135.32 48.6202Z" fill="white"/>
<path d="M119.54 91.4004C113.71 96.5604 107.46 101.26 101.4 106.18C100.6 106.83 99.9397 107.23 98.8797 106.43C87.2197 97.6604 75.8697 88.5304 66.8297 76.9304C63.7697 73.0004 61.0097 68.8604 60.1897 63.7404C58.4397 52.8004 68.8997 40.4304 79.9497 40.4404C86.4397 40.7204 91.4997 43.5104 94.8797 49.1104C98.6697 55.4004 101.32 55.4604 105.07 49.2404C111.9 37.9104 126.97 37.5704 135.32 48.6104C139.5 54.1304 142.2 63.2804 136.98 71.5304C132.19 79.1204 126.17 85.5404 119.54 91.4004Z" fill="white"/>
</svg>
