<svg id="Layer_1" data-name="Layer 1" xmlns="http://www.w3.org/2000/svg" viewBox="0 0 345.57 345.57"><defs><style>.cls-1{fill:#fff;}</style></defs><title>outreach-icon</title><path class="cls-1" d="M5.23,190.47V156.79a32.09,32.09,0,0,0,1.45-4.69c11-69,49.64-115,115.16-138.7,11.36-4.12,23.38-5.11,34.95-8.17h33.68a27.86,27.86,0,0,0,4.69,1.45c96.71,12.47,162.12,103.26,143.62,199.4-14.36,74.64-78.62,131.19-154.26,135.74-76.88,4.62-147.06-42.88-170.93-115.46C9.72,214.6,8.27,202.37,5.23,190.47Zm249.64-81.14c-1.18-19.77-9.08-36-27.28-45S192,58.14,177.15,72c-4.62,4.32-6.33.29-8.76-1.66-17.1-13.74-37.45-14.86-54.36-2.82C91.28,83.76,85.56,112.94,101.29,136c17.65,25.86,41.71,45.15,66.91,63.11,3.55,2.53,7.29,2.92,10.87.1,22.89-18,46.84-34.85,64.13-58.94C249.81,131.06,255.24,121.33,254.87,109.33ZM221.16,237.54c-.33-5.1,3.67-7.2,6.23-10.24,4-4.69,6.61-9.68,1.41-14.8s-10.27-3.05-14.8,1.35c-9.25,9-18.4,18.09-27.69,27a9.62,9.62,0,0,0-3.07,7.48c0,10.66.11,21.32-.05,32-.08,5.23,1.9,7.81,7.38,7.7,8.42-.16,16.84-.12,25.25,0,4.38.07,7.5-1.38,6.73-6.2-1.48-9.26,3-15.39,9.53-21,5.31-4.56,10.13-9.68,15.32-14.39,6.74-6.11,11.15-13.22,10.92-22.68-.24-9.81-.38-19.63-.48-29.44-.07-6.91-3.15-11.77-10.25-11.76-6.73,0-9.7,4.94-9.89,11.31s-.64,13,.1,19.34C239.34,226.45,229.31,231.25,221.16,237.54Zm-94.47,1.06c-13-6.63-17.16-13.41-17.38-26.22-.13-7.52,1.12-15.16-1.34-22.53-1.48-4.45-4.42-7.29-9.34-6.73-5.14.59-9.1,2.94-9.5,8.81-.18,2.51.16,5.09-.25,7.54-4.47,26.26,4.19,46.65,26.28,61.8a21.33,21.33,0,0,1,9.5,21.2c-.68,4.92,2,5.62,5.94,5.57,8.68-.1,17.36-.16,26,0,4.92.11,7.17-1.68,7.05-6.85-.22-10.36-.16-20.72,0-31.08a12.1,12.1,0,0,0-4-9.67c-9.35-8.85-18.52-17.9-27.8-26.83-4.52-4.36-9.56-4.92-14.17-.56s-3,8.8.56,13.36C121,230,125.93,232.1,126.69,238.6Z"/><path class="cls-1" d="M138.46,73.49c12.79.09,21,5.68,27.26,15.46,6,9.43,9.55,9.2,15.93,0,11-15.82,27.46-20,42-10.53,16.21,10.46,21.83,31.54,12.34,47-8.3,13.5-19.1,24.86-31.07,35.13-5.74,4.93-11.63,9.69-17.57,14.38-14.16,11.17-14.26,11.23-28.52-.26-17.28-13.92-34.07-28.41-46.25-47.27-12.35-19.13-4.7-42.82,16.28-51.69A30.46,30.46,0,0,1,138.46,73.49Z"/></svg>