<svg width="200" height="200" viewBox="0 0 200 200" fill="none" xmlns="http://www.w3.org/2000/svg">
<path d="M95.75 119.85C95.75 121.32 95.42 122.43 94.77 123.17C94.11 123.91 93.27 124.28 92.24 124.28C91.22 124.28 90.37 123.91 89.71 123.16C89.04 122.42 88.71 121.32 88.71 119.88C88.71 118.42 89.03 117.32 89.68 116.59C90.33 115.87 91.18 115.5 92.24 115.5C93.3 115.5 94.15 115.86 94.79 116.58C95.43 117.3 95.75 118.39 95.75 119.85Z" fill="white"/>
<path d="M119.73 115.72C120.15 115.79 120.47 115.96 120.7 116.22C120.93 116.48 121.04 116.83 121.04 117.26C121.04 117.64 120.95 117.96 120.78 118.21C120.61 118.47 120.37 118.65 120.06 118.75C119.75 118.86 118.98 118.91 117.75 118.91H115.85V115.68H117.85C118.89 115.68 119.52 115.69 119.73 115.72Z" fill="white"/>
<path d="M122.89 75.8789V90.1389H113.29L122.89 75.8789Z" fill="white"/>
<path d="M127.96 121.87L125.46 122.12C125.63 123.54 126.15 124.62 127.01 125.37C127.87 126.11 129.11 126.48 130.72 126.48C131.82 126.48 132.75 126.33 133.49 126.02C134.23 125.71 134.8 125.24 135.21 124.6C135.61 123.96 135.82 123.28 135.82 122.55C135.82 121.74 135.65 121.07 135.31 120.52C134.97 119.97 134.5 119.54 133.9 119.23C133.3 118.91 132.38 118.61 131.13 118.31C129.88 118.01 129.09 117.73 128.76 117.46C128.51 117.24 128.38 116.99 128.38 116.69C128.38 116.36 128.52 116.09 128.79 115.9C129.21 115.59 129.8 115.43 130.54 115.43C131.27 115.43 131.81 115.58 132.17 115.86C132.53 116.15 132.77 116.62 132.88 117.28L135.45 117.16C135.41 115.99 134.99 115.06 134.18 114.36C133.37 113.66 132.17 113.31 130.57 113.31C129.59 113.31 128.76 113.45 128.06 113.75C127.37 114.04 126.84 114.47 126.47 115.04C126.11 115.6 125.92 116.21 125.92 116.86C125.92 117.87 126.31 118.72 127.1 119.42C127.65 119.92 128.62 120.34 130 120.68C131.07 120.95 131.75 121.13 132.06 121.24C132.5 121.39 132.8 121.58 132.98 121.79C133.16 122 133.25 122.26 133.25 122.56C133.25 123.03 133.04 123.44 132.62 123.79C132.2 124.14 131.57 124.31 130.74 124.31C129.96 124.31 129.34 124.12 128.88 123.72C128.42 123.33 128.11 122.71 127.96 121.87ZM110.55 120.21V113.52H107.98V120.57C107.98 121.58 107.95 122.3 107.87 122.73C107.8 123.17 107.57 123.53 107.2 123.83C106.83 124.13 106.28 124.28 105.55 124.28C104.83 124.28 104.27 124.12 103.85 123.8C103.44 123.49 103.18 123.07 103.07 122.55C103 122.23 102.97 121.52 102.97 120.42V113.52H100.4V120.32C100.4 121.74 100.48 122.82 100.65 123.55C100.77 124.04 101.01 124.51 101.37 124.96C101.74 125.41 102.23 125.77 102.86 126.05C103.49 126.34 104.41 126.48 105.63 126.48C106.64 126.48 107.45 126.35 108.08 126.09C108.7 125.83 109.2 125.49 109.58 125.05C109.95 124.62 110.21 124.08 110.35 123.45C110.49 122.82 110.55 121.74 110.55 120.21ZM115.85 126.26V120.94H116.37C116.96 120.94 117.39 120.99 117.66 121.09C117.93 121.18 118.19 121.36 118.43 121.62C118.68 121.87 119.13 122.5 119.79 123.49L121.65 126.26H124.72L123.17 123.77C122.55 122.78 122.07 122.09 121.7 121.71C121.34 121.32 120.88 120.96 120.33 120.64C121.45 120.48 122.29 120.08 122.85 119.46C123.41 118.84 123.69 118.05 123.69 117.09C123.69 116.34 123.5 115.67 123.13 115.09C122.76 114.5 122.27 114.1 121.65 113.87C121.04 113.64 120.05 113.52 118.69 113.52H113.27V126.26H115.85ZM83.92 126.26V113.52H81.35V118.54H76.31V113.52H73.74V126.26H76.31V120.69H81.35V126.26H83.92ZM96.73 124.73C97.85 123.57 98.41 121.96 98.41 119.91C98.41 117.84 97.85 116.22 96.72 115.05C95.59 113.89 94.09 113.31 92.22 113.31C91.18 113.31 90.26 113.47 89.47 113.81C88.87 114.06 88.33 114.44 87.82 114.96C87.32 115.47 86.93 116.05 86.64 116.7C86.25 117.58 86.06 118.67 86.06 119.97C86.06 122 86.62 123.59 87.73 124.74C88.85 125.9 90.36 126.48 92.25 126.48C94.12 126.48 95.62 125.9 96.73 124.73ZM100 0C155.23 0 200 44.77 200 100C200 155.23 155.23 200 100 200C44.77 200 0 155.23 0 100C0 44.77 44.77 0 100 0ZM166.76 108.58C171.63 75.92 150.28 43.84 118.24 35.69C85.47 27.34 57.56 45.2 47.33 62.76C49.82 64.13 52.33 65.49 54.98 66.94C71.61 43.32 100.47 38.09 121.99 46.4C143.26 54.61 158.48 75.32 158.17 98.28C157.75 128.72 141.15 146.97 112.64 155.32C112.42 156.81 112.37 158.48 111.87 160C111.38 161.52 110.43 162.89 109.67 164.36C132.66 162.55 161.59 143.27 166.76 108.58ZM135.82 97.18V90.14H130.63V63.66H123.91L105.8 90.17V97.18H122.89V105.58H130.63V97.18H135.82ZM103.43 163.9C108.39 160.36 109.51 156.91 106.43 151.71C103.62 146.99 100.21 142.59 96.75 138.31C93.23 133.95 90.74 133.66 85.73 136.11C83.65 137.13 82.32 138.75 81.47 140.83C80.08 144.25 77.37 145.7 73.86 145.78C69.05 145.88 65 144.19 61.82 140.48C55.21 132.76 50.51 123.84 46.03 114.83C44.17 111.1 44.86 107.07 46.58 103.34C47.95 100.39 50.28 98.49 53.66 98.53C58.23 98.57 60.8 95.79 62.6 92.21C63.22 90.99 63.2 88.99 62.64 87.71C60.1 81.9 56.94 76.42 52.76 71.61C48.54 66.76 45.19 66.35 39.81 69.87C39.37 70.16 38.92 70.45 38.53 70.8C28.44 79.62 24.27 90.57 26.62 103.87C28.9 116.81 34.38 128.4 41.6 139.26C47.9 148.73 55.29 157.11 65.1 163.14C71.16 166.87 77.51 169.53 86.22 169.39C91.44 169.12 97.85 167.88 103.43 163.9ZM101.79 105.58V98.14H85.9C86.32 97.42 86.86 96.68 87.54 95.92C88.21 95.16 89.81 93.63 92.33 91.31C94.86 88.99 96.61 87.22 97.57 85.99C99.04 84.12 100.1 82.34 100.78 80.65C101.45 78.95 101.79 77.16 101.79 75.28C101.79 71.97 100.61 69.21 98.26 66.99C95.9 64.77 92.67 63.66 88.55 63.66C84.79 63.66 81.66 64.62 79.15 66.54C76.64 68.45 75.15 71.61 74.68 76.02L82.65 76.82C82.8 74.48 83.37 72.81 84.36 71.8C85.35 70.8 86.68 70.29 88.35 70.29C90.04 70.29 91.36 70.77 92.32 71.73C93.28 72.69 93.76 74.06 93.76 75.85C93.76 77.46 93.21 79.09 92.11 80.75C91.29 81.94 89.08 84.22 85.47 87.58C80.99 91.74 77.99 95.07 76.47 97.59C74.95 100.1 74.04 102.77 73.74 105.58H101.79Z" fill="white"/>
</svg>
