<svg width="21" height="21" viewBox="0 0 21 21" fill="none" xmlns="http://www.w3.org/2000/svg">
<path fill-rule="evenodd" clip-rule="evenodd" d="M0.916504 10.5002C0.916504 5.21606 5.21558 0.916992 10.4998 0.916992C15.7841 0.916992 20.0832 5.21606 20.0832 10.5002C20.0832 15.7847 15.7841 20.0837 10.4998 20.0837C5.21558 20.0837 0.916504 15.7847 0.916504 10.5002ZM2.83316 10.5002C2.83316 14.7275 6.27264 18.167 10.4998 18.167C14.7271 18.167 18.1665 14.7275 18.1665 10.5002C18.1665 6.27319 14.7271 2.83374 10.4998 2.83374C6.27264 2.83374 2.83316 6.27319 2.83316 10.5002ZM9.5415 5.70801H11.4582V9.54126H15.2915V11.458H9.5415V5.70801Z" fill="black"/>
</svg>
