<svg width="60" height="60" viewBox="0 0 60 60" fill="none" xmlns="http://www.w3.org/2000/svg">
<path d="M29.8036 0.000504049C13.232 0.106529 -0.0317504 13.5293 5.70879e-05 30.1752C0.0318645 46.7574 13.4334 60.0317 30.1005 59.9999C46.5661 59.9681 60.0101 46.4818 59.9465 30.0373C59.8935 13.3702 46.3859 -0.0949183 29.8036 0.000504049ZM41.3603 23.4744C39.7063 24.5665 39.6533 26.2628 39.3989 28.0123C38.0312 37.5333 27.3651 42.8345 18.9043 38.2755C18.7346 38.18 18.5756 38.0528 18.5226 38.021C20.6113 37.3955 22.7106 36.7699 24.8099 36.1444C24.7781 35.9853 24.7462 35.8157 24.7144 35.6566C22.8272 35.2007 21.3216 34.2995 20.6113 32.2426C21.099 32.1684 21.4807 32.1048 22.1274 31.9988C20.1236 30.9385 18.9361 29.539 18.7877 27.2489C19.3814 27.3655 19.8691 27.4715 20.6113 27.62C18.9361 25.6055 18.1833 23.6122 19.4132 21.3645C20.9612 22.4884 22.3819 23.7819 24.0359 24.6301C25.6793 25.4783 27.5559 25.8706 29.5068 26.5173C29.5492 25.6797 29.5492 25.2132 29.5916 24.7467C29.899 21.3963 33.3555 19.2758 36.462 20.5481C38.89 21.5341 38.89 21.5341 41.4027 20.7284C40.8408 21.6084 40.4061 22.2869 39.9078 23.0715C40.4697 22.9761 40.9786 22.8913 41.6996 22.7746C41.5512 23.0927 41.5088 23.3684 41.3603 23.4744Z" fill="white"/>
</svg>
