<svg width="320" height="72" viewBox="0 0 320 72" fill="none" xmlns="http://www.w3.org/2000/svg">
<path d="M280.842 71.3534C298.704 71.3534 313.184 56.8731 313.184 39.0107C313.184 21.1483 298.704 6.66797 280.842 6.66797C262.979 6.66797 248.499 21.1483 248.499 39.0107C248.499 56.8731 262.979 71.3534 280.842 71.3534Z" fill="url(#paint0_linear_166_875)"/>
<path d="M7.05158 32.1752L11.8478 19.0273L16.6441 32.1752L21.401 19.4114H23.6957L16.6441 37.9465L11.8478 24.8774L7.05158 37.9465L0 19.4114H2.29472L7.05158 32.1752Z" fill="white"/>
<path d="M34.1347 31.7215C34.1347 35.0503 31.5347 37.6109 28.2256 37.6109C24.9164 37.6109 22.3164 35.0602 22.3164 31.7215C22.3164 28.3828 24.9164 25.832 28.2256 25.832C31.5347 25.832 34.1347 28.3927 34.1347 31.7215ZM24.4437 31.7215C24.4437 33.7995 26.118 35.5723 28.2256 35.5723C30.3331 35.5723 32.0074 33.7995 32.0074 31.7215C32.0074 29.6139 30.3331 27.8707 28.2256 27.8707C26.118 27.8707 24.4437 29.6237 24.4437 31.7215Z" fill="white"/>
<path d="M38.2817 27.5653H38.3309C38.912 26.6001 39.9658 25.8418 41.1082 25.8418C42.4771 25.8418 43.462 26.5706 44.1317 27.8017C44.7817 26.6198 46.0325 25.8418 47.362 25.8418C50.1196 25.8418 50.8386 28.107 50.8386 30.6184V37.2366H48.8196V30.9729C48.8196 29.5547 48.6424 27.7327 46.8696 27.7327C44.7226 27.7327 44.565 30.0964 44.565 31.8002V37.2366H42.5461V31.3767C42.5461 29.9388 42.4771 27.7327 40.6158 27.7327C38.4688 27.7327 38.2817 30.0767 38.2817 31.8002V37.2366H36.2627V26.1668H38.2817V27.5653Z" fill="white"/>
<path d="M55.477 32.0563C55.4967 33.9472 56.777 35.7199 58.8058 35.7199C60.4407 35.7199 61.3073 34.8926 62.1149 33.5729L63.9074 34.5873C62.8634 36.498 60.9331 37.6108 58.7763 37.6108C55.3982 37.6108 53.3398 35.0601 53.3398 31.8002C53.3398 28.3926 55.1618 25.8418 58.727 25.8418C62.2528 25.8418 63.9074 28.4418 63.9074 31.7312V32.0661H55.477V32.0563ZM61.7899 30.4509C61.5339 28.7964 60.4407 27.6835 58.7369 27.6835C57.0823 27.6835 55.8512 28.8653 55.5952 30.4509H61.7899Z" fill="white"/>
<path d="M68.4964 27.6638H68.5457C69.2055 26.482 70.5351 25.8418 71.8745 25.8418C74.9965 25.8418 75.7942 27.9494 75.7942 30.6381V37.2366H73.6669V30.904C73.6669 29.013 73.4109 27.7327 71.2343 27.7327C68.4964 27.7327 68.4964 30.1456 68.4964 32.1547V37.2366H66.3691V26.1668H68.4964V27.6638Z" fill="white"/>
<path d="M82.9643 19.9827L79.8226 26.2956L78.5029 25.754L81.103 19.2539L82.9643 19.9827Z" fill="white"/>
<path d="M87.7508 28.6978C87.4947 28.1561 86.9432 27.7326 86.3326 27.7326C85.7417 27.7326 85.1705 28.2054 85.1705 28.816C85.1705 29.7811 86.4508 30.2145 87.7508 30.8054C89.0508 31.3963 90.3016 32.2039 90.3016 33.9471C90.3016 36.0547 88.5485 37.6108 86.5 37.6108C84.8947 37.6108 83.2599 36.685 82.6689 35.1289L84.4909 34.3016C84.944 35.1289 85.4856 35.7198 86.5 35.7198C87.3963 35.7198 88.1743 35.1092 88.1743 34.1638C88.1743 33.5728 87.8887 33.2872 87.3963 32.9622L85.3182 31.8493C84.0871 31.1895 83.1909 30.569 83.1909 29.0622C83.1909 27.2698 84.6584 25.8516 86.4508 25.8516C87.8001 25.8516 88.8834 26.5804 89.4743 27.7917L87.7508 28.6978Z" fill="white"/>
<path d="M110.777 23.2019C109.556 22.1284 107.872 21.5473 106.257 21.5473C102.425 21.5473 99.4906 24.7087 99.4906 28.4512C99.4906 32.1444 102.396 35.3058 106.207 35.3058C107.882 35.3058 109.497 34.6755 110.767 33.5626V36.0543C109.447 36.8126 107.773 37.246 106.276 37.246C101.401 37.246 97.3633 33.4149 97.3633 28.53C97.3633 23.5368 101.421 19.6367 106.463 19.6367C107.96 19.6367 109.477 19.9913 110.777 20.7792V23.2019Z" fill="white"/>
<path d="M116.017 27.9671H116.086C116.608 26.6671 117.691 25.8398 119.109 25.8398C119.72 25.8398 120.34 26.0565 120.862 26.3815L119.897 28.3217C119.523 27.9868 119.09 27.8687 118.597 27.8687C116.303 27.8687 116.017 29.9959 116.017 31.7884V37.2248H113.89V26.1648H116.017V27.9671Z" fill="white"/>
<path d="M132.996 28.6958C132.74 28.1542 132.188 27.7307 131.578 27.7307C130.987 27.7307 130.416 28.2034 130.416 28.814C130.416 29.7792 131.696 30.2125 132.996 30.8034C134.296 31.3944 135.547 32.2019 135.547 33.9451C135.547 36.0527 133.794 37.6088 131.745 37.6088C130.14 37.6088 128.505 36.683 127.914 35.127L129.736 34.2997C130.189 35.127 130.731 35.7179 131.745 35.7179C132.641 35.7179 133.419 35.1073 133.419 34.1618C133.419 33.5709 133.134 33.2853 132.641 32.9603L130.563 31.8474C129.332 31.1875 128.436 30.5671 128.436 29.0602C128.436 27.2678 129.903 25.8496 131.696 25.8496C133.045 25.8496 134.129 26.5784 134.719 27.7898L132.996 28.6958Z" fill="white"/>
<path d="M148.074 28.6958C147.818 28.1542 147.266 27.7307 146.656 27.7307C146.065 27.7307 145.494 28.2034 145.494 28.814C145.494 29.7792 146.774 30.2125 148.074 30.8034C149.374 31.3944 150.625 32.2019 150.625 33.9451C150.625 36.0527 148.872 37.6088 146.823 37.6088C145.218 37.6088 143.583 36.683 142.992 35.127L144.814 34.2997C145.267 35.127 145.809 35.7179 146.823 35.7179C147.72 35.7179 148.498 35.1073 148.498 34.1618C148.498 33.5709 148.212 33.2853 147.72 32.9603L145.641 31.8474C144.41 31.1875 143.514 30.5671 143.514 29.0602C143.514 27.2678 144.982 25.8496 146.774 25.8496C148.123 25.8496 149.207 26.5784 149.798 27.7898L148.074 28.6958Z" fill="white"/>
<path d="M140.363 21.7137C140.363 22.5213 139.703 23.1516 138.895 23.1516C138.088 23.1516 137.428 22.5114 137.428 21.7137C137.428 20.8864 138.088 20.2266 138.895 20.2266C139.703 20.2266 140.363 20.8864 140.363 21.7137Z" fill="white"/>
<path d="M139.958 26.1641H137.831V37.224H139.958V26.1641Z" fill="white"/>
<path d="M125.422 21.7137C125.422 22.5213 124.762 23.1516 123.955 23.1516C123.147 23.1516 122.487 22.5114 122.487 21.7137C122.487 20.8864 123.147 20.2266 123.955 20.2266C124.762 20.2266 125.422 20.8864 125.422 21.7137Z" fill="white"/>
<path d="M125.018 26.1641H122.891V37.224H125.018V26.1641Z" fill="white"/>
<path d="M167.002 22.7894C166.342 21.6765 165.486 21.1152 164.146 21.1152C162.728 21.1152 161.172 22.0803 161.172 23.6462C161.172 25.0447 162.541 25.7735 163.654 26.197L164.934 26.6895C167.465 27.6842 169.356 29.0728 169.356 32.0569C169.356 35.2971 166.854 37.6115 163.664 37.6115C160.778 37.6115 158.532 35.4842 158.158 32.6281L160.404 32.1554C160.384 34.1153 161.94 35.5335 163.851 35.5335C165.761 35.5335 167.14 33.9282 167.14 32.0569C167.14 30.1463 165.604 29.319 164.067 28.6789L162.836 28.1569C160.807 27.2804 158.956 26.1281 158.956 23.6462C158.956 20.7606 161.507 19.0371 164.205 19.0371C166.195 19.0371 167.82 20.0023 168.795 21.7356L167.002 22.7894Z" fill="white"/>
<path d="M172.912 32.0563C172.931 33.9472 174.212 35.7199 176.24 35.7199C177.875 35.7199 178.742 34.8926 179.55 33.5729L181.342 34.5873C180.298 36.498 178.368 37.6108 176.211 37.6108C172.833 37.6108 170.774 35.0601 170.774 31.8002C170.774 28.3926 172.596 25.8418 176.162 25.8418C179.687 25.8418 181.342 28.4418 181.342 31.7312V32.0661H172.912V32.0563ZM179.224 30.4509C178.968 28.7964 177.875 27.6835 176.171 27.6835C174.517 27.6835 173.286 28.8653 173.03 30.4509H179.224Z" fill="white"/>
<path d="M186.197 27.9691H186.266C186.788 26.6691 187.871 25.8418 189.289 25.8418C189.9 25.8418 190.52 26.0585 191.042 26.3835L190.077 28.3236C189.703 27.9888 189.269 27.8706 188.777 27.8706C186.482 27.8706 186.197 29.9979 186.197 31.7903V37.2268H184.069V26.1668H186.197V27.9691Z" fill="white"/>
<path d="M198.232 33.0718L201.423 26.168H203.807L198.232 37.612L192.678 26.168H195.061L198.232 33.0718Z" fill="white"/>
<path d="M208.13 21.7157C208.13 22.5232 207.47 23.1535 206.663 23.1535C205.855 23.1535 205.195 22.5134 205.195 21.7157C205.195 20.8884 205.855 20.2285 206.663 20.2285C207.47 20.2285 208.13 20.8884 208.13 21.7157Z" fill="white"/>
<path d="M207.726 26.166H205.599V37.226H207.726V26.166Z" fill="white"/>
<path d="M219.052 29.3183C218.205 28.3532 217.161 27.8312 215.881 27.8312C213.803 27.8312 212.198 29.6729 212.198 31.7115C212.198 33.9767 213.783 35.6313 216.029 35.6313C217.26 35.6313 218.254 35.0601 219.052 34.1638V36.8821C218.087 37.404 217.112 37.6108 215.999 37.6108C212.739 37.6108 210.07 35.1093 210.07 31.8002C210.07 28.3729 212.72 25.8418 216.117 25.8418C217.112 25.8418 218.195 26.0782 219.052 26.5706V29.3183Z" fill="white"/>
<path d="M222.962 32.0563C222.982 33.9472 224.262 35.7199 226.291 35.7199C227.926 35.7199 228.793 34.8926 229.6 33.5729L231.393 34.5873C230.349 36.498 228.418 37.6108 226.262 37.6108C222.884 37.6108 220.825 35.0601 220.825 31.8002C220.825 28.3926 222.647 25.8418 226.212 25.8418C229.738 25.8418 231.393 28.4418 231.393 31.7312V32.0661H222.962V32.0563ZM229.275 30.4509C229.019 28.7964 227.926 27.6835 226.222 27.6835C224.568 27.6835 223.337 28.8653 223.081 30.4509H229.275Z" fill="white"/>
<path d="M238.276 28.6978C238.02 28.1561 237.469 27.7326 236.858 27.7326C236.267 27.7326 235.696 28.2054 235.696 28.816C235.696 29.7811 236.976 30.2145 238.276 30.8054C239.576 31.3963 240.827 32.2039 240.827 33.9471C240.827 36.0547 239.074 37.6108 237.025 37.6108C235.42 37.6108 233.785 36.685 233.194 35.1289L235.016 34.3016C235.469 35.1289 236.011 35.7198 237.025 35.7198C237.922 35.7198 238.7 35.1092 238.7 34.1638C238.7 33.5728 238.414 33.2872 237.922 32.9622L235.844 31.8493C234.613 31.1895 233.716 30.569 233.716 29.0622C233.716 27.2698 235.184 25.8516 236.976 25.8516C238.325 25.8516 239.409 26.5804 240 27.7917L238.276 28.6978Z" fill="white"/>
<path d="M133.448 49.1354C133.448 50.8983 132.049 52.2279 130.336 52.2279C128.622 52.2279 127.224 50.8983 127.224 49.1354C127.224 47.4316 128.632 46.043 130.336 46.043C132.04 46.043 133.448 47.4415 133.448 49.1354ZM132.709 49.1354C132.709 47.8256 131.734 46.7324 130.336 46.7324C128.937 46.7324 127.962 47.8256 127.962 49.1354C127.962 50.4945 129.046 51.5385 130.336 51.5385C131.626 51.5385 132.709 50.4945 132.709 49.1354Z" fill="white"/>
<path d="M136.757 46.8494V48.5236H138.816V49.2032H136.757V52.1184H136.019V46.1797H138.894V46.8592H136.757V46.8494Z" fill="white"/>
<path d="M146.793 50.4256L148.467 46.043L150.142 50.4256L151.806 46.171H152.614L150.151 52.3461L148.477 47.993L146.803 52.3461L144.341 46.171H145.148L146.793 50.4256Z" fill="white"/>
<path d="M155.214 50.6216L154.534 52.1087H153.736L156.573 45.9238L159.409 52.1087H158.611L157.932 50.6216H155.214ZM156.573 47.539L155.519 49.942H157.627L156.573 47.539Z" fill="white"/>
<path d="M162.777 52.1086H162.038V46.8495H160.63V46.1699H164.185V46.8495H162.777V52.1086Z" fill="white"/>
<path d="M166.371 46.1699H169.562V46.8495H167.11V48.5139H169.483V49.1934H167.11V51.4389H169.562V52.1185H166.371V46.1699Z" fill="white"/>
<path d="M175.777 52.1086H174.881L173.138 49.5972H172.832V52.1086H172.094V46.1699H172.99C173.522 46.1699 174.083 46.1798 174.556 46.4457C175.048 46.7411 175.334 47.2927 175.334 47.8639C175.334 48.7109 174.763 49.42 173.906 49.5283L175.777 52.1086ZM172.823 48.9866H173.059C173.817 48.9866 174.635 48.8487 174.635 47.9033C174.635 46.9775 173.748 46.8396 173.02 46.8396H172.823V48.9866Z" fill="white"/>
<path d="M178.918 51.4291H180.721V52.1086H178.18V46.1699H178.918V51.4291Z" fill="white"/>
<path d="M188.61 49.1354C188.61 50.8983 187.212 52.2279 185.498 52.2279C183.784 52.2279 182.386 50.8983 182.386 49.1354C182.386 47.4316 183.794 46.043 185.498 46.043C187.202 46.043 188.61 47.4415 188.61 49.1354ZM187.871 49.1354C187.871 47.8256 186.896 46.7324 185.498 46.7324C184.099 46.7324 183.124 47.8256 183.124 49.1354C183.124 50.4945 184.208 51.5385 185.498 51.5385C186.788 51.5385 187.871 50.4945 187.871 49.1354Z" fill="white"/>
<path d="M197.08 49.1354C197.08 50.8983 195.681 52.2279 193.968 52.2279C192.254 52.2279 190.855 50.8983 190.855 49.1354C190.855 47.4316 192.264 46.043 193.968 46.043C195.671 46.043 197.08 47.4415 197.08 49.1354ZM196.341 49.1354C196.341 47.8256 195.366 46.7324 193.968 46.7324C192.569 46.7324 191.594 47.8256 191.594 49.1354C191.594 50.4945 192.677 51.5385 193.968 51.5385C195.258 51.5385 196.341 50.4945 196.341 49.1354Z" fill="white"/>
<path d="M207.066 52.1086H206.17L204.427 49.5972H204.121V52.1086H203.383V46.1699H204.279C204.811 46.1699 205.372 46.1798 205.845 46.4457C206.337 46.7411 206.623 47.2927 206.623 47.8639C206.623 48.7109 206.052 49.42 205.195 49.5283L207.066 52.1086ZM204.112 48.9866H204.348C205.106 48.9866 205.924 48.8487 205.924 47.9033C205.924 46.9775 205.037 46.8396 204.309 46.8396H204.112V48.9866Z" fill="white"/>
<path d="M209.42 46.1699H212.611V46.8495H210.159V48.5139H212.542V49.1934H210.159V51.4389H212.611V52.1185H209.42V46.1699Z" fill="white"/>
<path d="M220.834 49.1157V49.3521C220.834 50.987 219.682 52.2377 218.027 52.2377C216.373 52.2377 215.023 50.7998 215.023 49.1551C215.023 47.4415 216.392 46.043 218.106 46.043C219.032 46.043 219.938 46.4566 220.529 47.1953L220.007 47.6877C219.583 47.1066 218.864 46.7225 218.136 46.7225C216.806 46.7225 215.762 47.796 215.762 49.1354C215.762 50.3763 216.786 51.5582 218.067 51.5582C218.992 51.5582 219.977 50.7604 220.017 49.7953H218.48V49.1157H220.834Z" fill="white"/>
<path d="M223.926 52.1086H223.188V46.1699H223.926V52.1086Z" fill="white"/>
<path d="M232.741 49.1354C232.741 50.8983 231.342 52.2279 229.629 52.2279C227.915 52.2279 226.517 50.8983 226.517 49.1354C226.517 47.4316 227.925 46.043 229.629 46.043C231.333 46.043 232.741 47.4415 232.741 49.1354ZM232.002 49.1354C232.002 47.8256 231.027 46.7324 229.629 46.7324C228.23 46.7324 227.255 47.8256 227.255 49.1354C227.255 50.4945 228.339 51.5385 229.629 51.5385C230.919 51.5385 232.002 50.4945 232.002 49.1354Z" fill="white"/>
<path d="M235.321 45.8848L239.783 50.553V46.1704H240.521V52.3553L236.06 47.6871V52.1091H235.321V45.8848Z" fill="white"/>
<path d="M269.172 3.10107L269.438 5.57307L268.985 5.71095L268.62 1.79121L270.669 4.23366L271.072 1.07227L272.885 4.56851L272.432 4.70639L271.328 2.48061H271.319L270.964 5.21852L269.172 3.10107Z" fill="white"/>
<path d="M277.611 1.95041C277.759 3.0436 277.011 3.98906 275.947 4.13679C274.883 4.28452 273.899 3.57542 273.751 2.48223C273.603 1.42843 274.361 0.443576 275.415 0.295848C276.469 0.157968 277.464 0.896611 277.611 1.95041ZM277.149 2.01935C277.04 1.21177 276.341 0.611002 275.474 0.729185C274.608 0.847368 274.096 1.61556 274.214 2.42314C274.332 3.26027 275.09 3.82164 275.888 3.7133C276.676 3.60497 277.267 2.85648 277.149 2.01935Z" fill="white"/>
<path d="M280.487 2.7576L281.571 0H282.083L280.507 3.92958L278.853 0.0295457H279.365L280.487 2.7576Z" fill="white"/>
<path d="M283.423 3.81269L282.96 3.78314L283.206 0.0800781L283.669 0.109624L283.423 3.81269Z" fill="white"/>
<path d="M285.452 0.0585938L287.746 3.38741L288.18 0.679054L288.633 0.747994L288.022 4.56924L285.727 1.24042L285.284 3.97833L284.831 3.90939L285.452 0.0585938Z" fill="white"/>
<path d="M293.242 3.92824L293.202 4.06612C292.907 5.04113 292.001 5.5828 290.996 5.28735C289.991 4.99189 289.46 3.88885 289.755 2.90399C290.06 1.87974 291.134 1.28882 292.158 1.59413C292.71 1.76155 293.182 2.17519 293.399 2.71687L292.995 2.92369C292.848 2.5002 292.483 2.1358 292.05 2.00777C291.252 1.7714 290.435 2.22444 290.198 3.02217C289.972 3.77066 290.376 4.65704 291.144 4.8934C291.695 5.06083 292.434 4.75552 292.621 4.18431L291.705 3.90854L291.823 3.50475L293.242 3.92824Z" fill="white"/>
<path d="M297.328 3.64453L297.732 3.85135C298.353 4.16651 298.865 4.61954 298.491 5.36803C298.372 5.61425 298.097 5.82107 297.821 5.82107V5.83092C298.175 6.09683 298.264 6.6188 298.067 7.0029C297.732 7.6726 297.033 7.6529 296.452 7.35745L295.674 6.97335L297.328 3.64453ZM296.265 6.80592L296.58 6.9635C296.964 7.15062 297.417 7.23926 297.653 6.76653C297.89 6.30365 297.456 5.9688 297.092 5.78167L296.836 5.65364L296.265 6.80592ZM297.003 5.32864L297.112 5.37788C297.506 5.57485 297.86 5.65364 298.097 5.18091C298.333 4.71803 298.057 4.48166 297.663 4.28469L297.545 4.2256L297.003 5.32864Z" fill="white"/>
<path d="M300.677 5.41602L302.371 6.47966L302.144 6.83421L300.844 6.01678L300.293 6.90315L301.553 7.69104L301.327 8.04559L300.066 7.2577L299.318 8.44938L300.618 9.26681L300.391 9.62136L298.697 8.55771L300.677 5.41602Z" fill="white"/>
<path d="M303.454 7.19922L303.878 7.52422L303.632 9.34621L305.326 8.64696L305.749 8.97196L303.504 9.89773L302.519 11.178L302.154 10.8924L303.139 9.61212L303.454 7.19922Z" fill="white"/>
<path d="M308.034 13.6409C307.266 14.4387 306.064 14.4288 305.286 13.6803C304.508 12.9318 304.469 11.7303 305.227 10.9326C305.966 10.1644 307.206 10.1545 307.975 10.8932C308.743 11.6318 308.772 12.8727 308.034 13.6409ZM307.699 13.3159C308.27 12.725 308.3 11.8091 307.679 11.1985C307.049 10.5879 306.133 10.6568 305.572 11.2477C304.981 11.8583 305.02 12.8038 305.591 13.3652C306.162 13.9265 307.108 13.9265 307.699 13.3159Z" fill="white"/>
<path d="M310.545 13.4238L309.994 17.4322L312.141 15.7284L312.426 16.0928L309.393 18.4958L309.944 14.4875L307.778 16.211L307.492 15.8466L310.545 13.4238Z" fill="white"/>
<path d="M313.539 17.7168L313.933 18.3767C314.524 19.3517 314.505 20.4646 313.441 21.1047C312.358 21.7646 311.353 21.2918 310.752 20.2873L310.358 19.6471L313.539 17.7168ZM310.969 19.8145L311.058 19.9524C311.55 20.76 312.279 21.2721 313.195 20.7108C314.121 20.1494 313.993 19.2729 313.5 18.4653L313.411 18.3274L310.969 19.8145Z" fill="white"/>
<path d="M314.653 25.8922L317.607 25.9217L317.794 26.3944L313.569 26.3157L316.622 23.3906L316.809 23.8634L314.653 25.8922Z" fill="white"/>
<path d="M314.701 29.0128L314.563 28.5696L318.119 27.4961L318.257 27.9393L314.701 29.0128Z" fill="white"/>
<path d="M317.646 33.5551C316.562 33.7718 315.578 33.0824 315.361 32.0286C315.144 30.9748 315.794 29.9604 316.868 29.7437C317.912 29.5369 318.936 30.2263 319.153 31.2604C319.369 32.3044 318.69 33.3483 317.646 33.5551ZM317.557 33.1021C318.355 32.9347 318.906 32.2059 318.739 31.349C318.562 30.4922 317.774 30.0293 316.976 30.1968C316.149 30.3642 315.637 31.1619 315.794 31.9498C315.952 32.7377 316.73 33.2695 317.557 33.1021Z" fill="white"/>
<path d="M316.386 35.4948L316.494 36.6176L316.071 36.657L315.923 35.0713L319.616 34.7168L319.655 35.1797L316.386 35.4948Z" fill="white"/>
<path d="M319.842 37.6309L319.871 39.6301L319.448 39.64L319.428 38.1036L318.384 38.1233L318.404 39.6104L317.981 39.6203L317.961 38.1331L316.552 38.1528L316.572 39.6892L316.149 39.6991L316.119 37.6998L319.842 37.6309Z" fill="white"/>
<path d="M320 41.2864L316.819 43.778L319.547 44.044L319.498 44.5068L315.657 44.1326L318.838 41.6409L316.081 41.375L316.13 40.9121L320 41.2864Z" fill="white"/>
<path d="M317.922 48.7693C318.207 48.5625 318.414 48.2375 318.493 47.8928C318.67 47.0754 318.129 46.3072 317.331 46.1299C316.533 45.9526 315.725 46.4155 315.548 47.2231C315.469 47.5777 315.528 47.9519 315.706 48.2769L315.174 48.1587C315.075 47.8436 315.056 47.4693 315.135 47.1542C315.361 46.1201 316.375 45.4504 317.429 45.6769C318.503 45.9133 319.143 46.9572 318.907 48.0307C318.838 48.3459 318.69 48.6512 318.454 48.8875L317.922 48.7693Z" fill="white"/>
<path d="M318.148 50.4943L317.518 52.3853L317.114 52.2474L317.597 50.7898L316.612 50.4648L316.139 51.8731L315.735 51.7352L316.208 50.3269L314.879 49.8837L314.396 51.3413L313.992 51.2034L314.622 49.3125L318.148 50.4943Z" fill="white"/>
<path d="M258.712 61.2988C258.574 61.1609 258.328 61.4761 258.328 61.4761C258.328 61.4761 257.511 62.3427 257.018 62.7071C256.605 63.0223 256.063 63.1306 255.945 62.9829C255.827 62.8352 255.974 62.6579 256.201 62.5003C256.467 62.3132 257.698 61.22 258.161 60.767C258.624 60.3041 259.983 58.423 261.706 56.5912C263.43 54.7593 265.055 53.5775 265.202 53.2426C265.35 52.8979 268.709 49.8153 268.935 49.5002C269.378 48.8896 271.387 47.1858 271.959 46.457L278.951 39.4645C275.209 41.9463 270.826 40.8334 266.926 39.1296C263.036 37.4258 260.879 34.1758 259.51 33.0334C258.535 32.2159 257.57 31.5659 255.354 29.7045C253.138 27.8432 249.76 24.4257 251.414 23.2537C253.069 22.0817 255.019 22.5643 258.417 23.7265C261.815 24.8886 265.202 27.7348 267.862 29.1432C270.521 30.5515 273.17 31.6743 275.425 32.6788C277.69 33.6834 281.689 35.5841 281.689 35.5841L281.876 35.1016C276.568 32.8955 273.278 30.0295 269.575 25.7257C265.833 21.3726 264.74 16.4779 263.607 12.9521C262.474 9.42632 262.533 8.35283 263.282 7.58464C263.282 7.58464 264.464 6.77706 265.596 7.55509C266.729 8.32328 268.728 9.99754 270.55 12.893C272.372 15.7885 273.613 18.1325 275.248 20.4173C276.883 22.7022 279.631 25.5878 280.763 27.7447C281.896 29.9015 283.787 32.9152 283.787 32.9152L285.047 31.6546C285.047 31.6546 285.599 31.0144 286.544 31.0932L286.84 31.0735C286.84 31.0735 286.899 29.4091 287.076 29.0053C287.263 28.572 288.563 27.1341 290.021 28.3651C290.021 28.3651 290.592 28.8477 290.927 29.1826C291.262 29.5174 291.606 29.9508 291.606 29.9508C292.838 31.4083 291.4 32.7084 290.966 32.8955C290.563 33.0728 288.898 33.1319 288.898 33.1319L288.878 33.4273C288.957 34.3826 288.317 34.9243 288.317 34.9243L287.056 36.1849C287.056 36.1849 290.07 38.0758 292.227 39.2084C294.384 40.341 297.279 43.0888 299.554 44.7236C301.839 46.3585 304.173 47.5994 307.079 49.4214C309.984 51.2434 311.648 53.2525 312.417 54.3752C313.185 55.5078 312.387 56.6896 312.387 56.6896C311.609 57.448 310.535 57.5071 307.019 56.3646C303.494 55.2321 298.599 54.1389 294.246 50.3964C289.952 46.6933 287.086 43.4138 284.87 38.0955L284.387 38.2827C284.387 38.2827 286.288 42.291 287.293 44.5464C288.297 46.8115 289.42 49.4509 290.828 52.1101C292.237 54.7692 295.083 58.1571 296.245 61.5548C297.407 64.9526 297.88 66.9026 296.718 68.5572C295.556 70.2118 292.128 66.8337 290.267 64.6178C288.406 62.4018 287.756 61.4367 286.938 60.4617C285.796 59.0927 282.546 56.9359 280.842 53.0457C279.138 49.1555 278.025 44.763 280.507 41.0206L273.515 48.0131C272.786 48.5843 271.072 50.5934 270.471 51.0366C270.156 51.2631 267.074 54.6214 266.729 54.7692C266.384 54.9169 265.212 56.5419 263.38 58.2654C261.549 59.9889 259.668 61.3579 259.205 61.8109C258.742 62.2738 257.658 63.5049 257.471 63.7708C257.314 63.9973 257.136 64.1549 256.989 64.0268C256.841 63.8988 256.949 63.367 257.264 62.9533C257.639 62.4609 258.496 61.6435 258.496 61.6435C258.496 61.6435 258.85 61.4367 258.712 61.2988Z" fill="#FAFDFF"/>
<defs>
<linearGradient id="paint0_linear_166_875" x1="248.504" y1="39.0148" x2="313.185" y2="39.0148" gradientUnits="userSpaceOnUse">
<stop stop-color="#A2BCE2"/>
<stop offset="0.15" stop-color="#96B6DF"/>
<stop offset="0.3" stop-color="#91B3DE"/>
<stop offset="0.45" stop-color="#80A9DA"/>
<stop offset="0.6" stop-color="#75A3D7"/>
<stop offset="0.75" stop-color="#689DD4"/>
<stop offset="1" stop-color="#4C94D0"/>
</linearGradient>
</defs>
</svg>
